
<global>
amp_veltrack=0
ampeg_attack=0.01
ampeg_release=0.35
</global>

<group>
group_label=Group_0-42
lpc_hicc1=42
lpc_locc1=0

<region>
hikey=a#2
hivel=127
lokey=a2
lovel=1
lpc=OX4KQ/kvmMP80zFDMnncwdhxnkLOfKjCV3WYQe5XFsE5ksJB560NwpugCEIPz1k8T4gzwkNBbkL/KL/B5urLwM4jCcGLU7NBe9wiwC2vEMGzDXq9fIyQvlIKp783vUlA
lpc_rms=-36.78
offset=1207
pitch_keycenter=a#2
sample=Solocello_tenuto_half_PP_A#2.opus
</region>

<region>
hikey=a#3
hivel=127
lokey=a3
lovel=1
lpc=h8uwQoiRTsPCow9DH3b9wUI/D0K+gxXCObnLQC9YBMARZzpBcJG3wXmi30HqUMPApLjJwfIM7kHunKvBrZQyQZUAXkDP3QjBbDIrQdf8NsCtPPbAH7zdQIV3J8F7ePdA
lpc_rms=-38.37
offset=1170
pitch_keycenter=a#3
sample=Solocello_tenuto_half_PP_A#3.opus
</region>

<region>
hikey=a#4
hivel=127
lokey=a4
lovel=1
lpc=IFU8QXgB38Ggz+FB5uSgwZ/Yf0EQvEbBHO3xQNX/csA24Fk/222uvp6cgj/ZqC9A5RbjwG4MukCJcw7AplWuPydS0L9yicg+vWgfQBQKhcCEDFJA+fBBwPvbSEAEWYC/
lpc_rms=-50.54
offset=6464
pitch_keycenter=a#4
sample=Solocello_tenuto_half_PP_A#4.opus
</region>

<region>
hivel=127
key=c2
lovel=1
lpc=Av0BQ19DkMP9/yBDGhsPwSh7hEKb/3fCA0ROweHP7j+1U7FBGVSMwRgAwUFL707BqH/twYRMHUIGVCm//+z4wIb9b8GPxFFBafIhQcBvr8HAkpBBE4MpwWsxCcAXKaFA
lpc_rms=-37.69
offset=14051
sample=Solocello_tenuto_half_PP_C2.opus
</region>

<region>
hikey=c3
hivel=127
lokey=b2
lovel=1
lpc=STuYQt73IcNBLblC9omYwd5VJELT/PzBCqq8v+7sMEB9a2tAu+oLwcAnO0EJ7US/PXKLwRX63UGTyp3BiF+NP/4kj0Adk2pAajmyP4hVmcBz5b/AvQbHQHovG8ARZ9w/
lpc_rms=-42.67
offset=5427
pitch_keycenter=c3
sample=Solocello_tenuto_half_PP_C3.opus
</region>

<region>
hikey=c4
hivel=127
lokey=b3
lovel=1
lpc=eZ9PQp1q+sIF0b1Ce8zrwXm6+kHgvwrCSp9jQf1FWsFzxZhBP7dlwRKgk0HVJEnB+X2EwWFz5kGE0nPB444sQYowY8E0WV9AuaavQMgakD6cgdC/w29FQDFIEsGvdKZA
lpc_rms=-43.09
offset=2727
pitch_keycenter=c4
sample=Solocello_tenuto_half_PP_C4.opus
</region>

<region>
hikey=c5
hivel=127
lokey=b4
lovel=1
lpc=luuPQZ9hLcIX1TFC67z8wYk4ykGt7LLBalKJQWcXJMH6bslAHPfDwDn9tED5xeS/yhtcwBF+t0C0CFLAOKWXvxVlkz8dvwdATtfvvyz7LED9sLrA2wHZQAIzasBqcGc/
lpc_rms=-45.64
offset=1808
pitch_keycenter=c5
sample=Solocello_tenuto_half_PP_C5.opus
</region>

<region>
hikey=d2
hivel=127
lokey=c#2
lovel=1
lpc=E+tKQoHK0cInoVFCCVenwClf/EFCqMjBV/ePwJZ/DEBVCS9AOSFIwETJAUE/3xO/zitcwQFpVEGUpKq/XIzJvnTQxMApFoJAsQycQMIYicAvRxy/aTJ/PuQMVcBXqltA
lpc_rms=-45.53
offset=892
pitch_keycenter=d2
sample=Solocello_tenuto_half_PP_D2.opus
</region>

<region>
hikey=d3
hivel=127
lokey=c#3
lovel=1
lpc=A0CuQkQmNcMqX7VCkJvFwOvHKkJaWP7BbIkewaZwdEDuTQ5Bt01iwYSppEHY3i/AI4PHwYz/1kFl1iPB3BNoP3vXib9eViFAE8nQPxw0t8AmOPy9iFyUQCgWgMCvxgBA
lpc_rms=-40.91
offset=1804
pitch_keycenter=d3
sample=Solocello_tenuto_half_PP_D3.opus
</region>

<region>
hikey=d4
hivel=127
lokey=c#4
lovel=1
lpc=Wg2FQTbeKcK2lS9CFPvnwYLttEFYi5jB3XYrQdQWCsBqDVLAdeUUQGk5rz8r3ZO/k602wE7kx0AoNavAQ9ftPwI3DsDIOIJAzfffvyJVYL9sVwU/EbXhvmAbuD/2Zym/
lpc_rms=-47.21
offset=3514
pitch_keycenter=d4
sample=Solocello_tenuto_half_PP_D4.opus
</region>

<region>
hikey=d5
hivel=127
lokey=c#5
lovel=1
lpc=954mQV3ZvMHPyLlB8DmFwaj/YkHZQy7BfUO+QJf0QsAQBT1A5O1xwIyfVUCZ8Bq/JIDzvw7XSUB1Ek/AJYq7P7gMWb/WMAZA0BlLv7O5ET/pncS/9GgkQALLQsA9H84/
lpc_rms=-49.30
offset=5909
pitch_keycenter=d5
sample=Solocello_tenuto_half_PP_D5.opus
</region>

<region>
hikey=e2
hivel=127
lokey=d#2
lovel=1
lpc=87AlQ2bzq8OQRSxD56XZwTQW70JTsMTC8KscQfkpg8G8vM1BP1WfwWhJvkGIyixAYaBAwngZYUIgN5bBXJtnQCY6n8EJ739BXaMmQbG0XsFIiYVA2qcjwUTj/r+52xNB
lpc_rms=-34.02
offset=8413
pitch_keycenter=e2
sample=Solocello_tenuto_half_PP_E2.opus
</region>

<region>
hikey=e3
hivel=127
lokey=d#3
lovel=1
lpc=etoFQ+fZmMPT20ZDgUQgwoRXjUJo9JXCkyluQXhni8GTfwtCg0QCwlKIQ0IJJATCWMoCwn04b0J+ZufBD+QvwM0NzUBcelFAWPhMQQFlvMFclq9AkUWRQBMhI8G6a/xA
lpc_rms=-35.63
offset=3925
pitch_keycenter=e3
sample=Solocello_tenuto_half_PP_E3.opus
</region>

<region>
hikey=e4
hivel=127
lokey=d#4
lovel=1
lpc=9twtQsPj58KfovNCvbSZwqQSbUKVt23CG78SQpYqNsFmniBAQLhWQOWqasBqoQNAwoo1wWSYtEG9CajBuISRQb+bssHe3axBdtM9wbtYLkDJyaDA3+hOQVr+O8G9HH9A
lpc_rms=-37.79
offset=1434
pitch_keycenter=e4
sample=Solocello_tenuto_half_PP_E4.opus
</region>

<region>
hikey=e5
hivel=127
lokey=d#5
lovel=1
lpc=ToECQmyVfMKwp2FCaz0hwjscEEKxcfXBZ1OWQSY//8B+C6w/ktSoP3KwT0Azb4W/yFy/P3E6sT8znpvA+iGxQMtn1cCRLbNAFO6pP2axCMGpofxAf4BywF7g3EAVwPG/
lpc_rms=-42.36
offset=3534
pitch_keycenter=e5
sample=Solocello_tenuto_half_PP_E5.opus
</region>

<region>
hikey=f#2
hivel=127
lokey=f2
lovel=1
lpc=h8E7Q2D+ycPu/1RDaHLVweTvAEMTJPHCZxujQRpzrMEWUghCiujlwVKgNkJoVZzBzI09wpkFb0J9eDDBNT9fv9tQ78FaD8xBnHNNQSh7q8E91ajANU71QMxhF8BzRYdA
lpc_rms=-32.55
offset=6359
pitch_keycenter=f#2
sample=Solocello_tenuto_half_PP_F#2.opus
</region>

<region>
hikey=f#3
hivel=127
lokey=f3
lovel=1
lpc=RivEQmD0e8OUgmBDABzIwgiEm0LwlaDCouEnQp4v8cHQNA5C6FQRwpXxWEKJnzzC5LYmwVkEU0KetvDBmYt9QFMbI8FrQT1BBHegv7De5sAvwctAwcAqQWZezMGvS1NB
lpc_rms=-34.80
offset=1347
pitch_keycenter=f#3
sample=Solocello_tenuto_half_PP_F#3.opus
</region>

<region>
hikey=f#4
hivel=127
lokey=f4
lovel=1
lpc=roX+QUCTr8LP/bpCN8FXwuz+F0KuMTPCGnn+QQbiA8H7c+Q/DFWtv9IAHb6b/6K/UwIKwWmhwkEA4J7BzXWrQDIWysAWDSxBQinhv/+sgsAw3h7ANKHtQPmhksBLWIE/
lpc_rms=-40.62
offset=1423
pitch_keycenter=f#4
sample=Solocello_tenuto_half_PP_F#4.opus
</region>

<region>
hikey=B6
hivel=127
lokey=f5
lovel=1
lpc=jSCjQUtPJ8J/Jx5CY3TfwXFKtUFOxovBbuAeQTg+msB6sRpA49U2v8Tj4UAMMarAGnwRwJmBgkAVrDjAVllRQKFYZMByFERA2wA4wE/RgEBorlrAM6caQVuRJMEy921A
lpc_rms=-44.55
offset=8608
pitch_keycenter=F#5
sample=Solocello_tenuto_half_PP_F#5.opus
</region>

<region>
hikey=g#2
hivel=127
lokey=g2
lovel=1
lpc=if1VQ/2i68PNS4pDFsFmwvlPB0OEE+TCo7otQcneKcFvHc5BBpsjwjPHWkL/h7u/bx+Dwt1+okIyGwzCYHAbQFvrjsGdFlRBGrmuQXZvq8EcK0LAu+KIQOnBb8GnxlxB
lpc_rms=-34.67
offset=1459
pitch_keycenter=g#2
sample=Solocello_tenuto_half_PP_G#2.opus
</region>

<region>
hikey=g#3
hivel=127
lokey=g3
lovel=1
lpc=jYSmQhomQMPvW+VCy5o5QDN1w0GoFzrCrPZDQZk6LMHyKfhBuFsSwmjE8EG2qRrBltapwcf28EHdIRLBQf2IwL54pT+GP8e/QvPbQAMCscA+OZ/AnXpTQRSAQ8FlyZlA
lpc_rms=-36.85
offset=926
pitch_keycenter=g#3
sample=Solocello_tenuto_half_PP_G#3.opus
</region>

<region>
hikey=g#4
hivel=127
lokey=g4
lovel=1
lpc=w22vQYqkXsLBBWhCaEsrwgTGDUJEQenBZS2iQaj+RsExfBNBXkmWwB57BT70TeI/v4f5wOyDS0GQcTbBz9/OQNdbor+sgZ0/fSMNwCSSH0B/juu/dbiZP/p2bsATSTVA
lpc_rms=-43.70
offset=2174
pitch_keycenter=g#4
sample=Solocello_tenuto_half_PP_G#4.opus
</region>
</group>

<group>
group_label=Group_43-84
lpc_hicc1=84
lpc_locc1=43

<region>
hikey=a#2
hivel=127
lokey=a2
lovel=1
lpc=+YemQm+AQ8PfwgBDR5CDwSPa5kFOVRDCaEBSQXlWpMEWaodBo4/HwHf1bkGZwFbBeLhawfatAUL/KjjBYLvnwCFMwsDLkldBxIX8wOOVxkBSi07AOH4wQNQYxcAtq2ZA
lpc_rms=-32.96
offset=4924
pitch_keycenter=a#2
sample=Solocello_tenuto_half_MF_A#2.opus
</region>

<region>
hikey=a#3
hivel=127
lokey=a3
lovel=1
lpc=ix8QQpu+rsJGvpJCG/blwdhLgEF0BX/BpaspQQDU8MDtytRAFh1bwPNZVb8/qOU/YZ6iwIVkKUEypMDAuzH8v9KG9j9kax5AMvJVwCXK8j8Zfy3AQhWYQEZSzcBCZ2RA
lpc_rms=-36.87
offset=2844
pitch_keycenter=a#3
sample=Solocello_tenuto_half_MF_A#3.opus
</region>

<region>
hikey=a#4
hivel=127
lokey=a4
lovel=1
lpc=cOCmQLSnJsE3TwVB+SKQwAh9hUCkUXXAtNwnQOUgvb/LtQY/rlAZv8WMnj9LxwK/3iMevxLWkD+3eQy/f7WmvDw3xr4gg14/pYUmv/4YXT7gqTu9sS+OP2NG6r+F824/
lpc_rms=-43.78
offset=4778
pitch_keycenter=a#4
sample=Solocello_tenuto_half_MF_A#4.opus
</region>

<region>
hivel=127
key=c2
lovel=1
lpc=GqyqQl2HPsP0mdVCJuxmQKahDEJo/ljCCxoiQefGM8CPaD9BLrB6wdQVSEHreIPAyDygQBYhdj9Dq61Ahe6AwWwL4r+UxGRBINz0v5jKQcAZ5QDARoP/QLwchsGbmSJB
lpc_rms=-32.67
offset=3295
sample=Solocello_tenuto_half_MF_C2.opus
</region>

<region>
hikey=c3
hivel=127
lokey=b2
lovel=1
lpc=aVhwQhB8D8O5JdFCZA7WwSCo5EEnAgPCnao4QWfcgcD5Vi0+lnMNv8CZJkEOixTB4j3/wB1VvUH9iJfBg7+fQKG1s8CPNGRBhqk8wYsVYUCIF3s96rR4QB9hIcEC+LtA
lpc_rms=-35.20
offset=2080
pitch_keycenter=c3
sample=Solocello_tenuto_half_MF_C3.opus
</region>

<region>
hikey=c4
hivel=127
lokey=b3
lovel=1
lpc=OP3TQcOjgsJ4Km1CUyD5wZn1okHw8WfBfK0PQZAB2sAsbaVAJBaAwOifuD8aEbs/a9vXwDHXMEEwQ6fAfOvSvzNGDUDeRSG/IlyIv8QjqD9we3W/aT3ZP2+Q7L8qY1E/
lpc_rms=-37.93
offset=19285
pitch_keycenter=c4
sample=Solocello_tenuto_half_MF_C4.opus
</region>

<region>
hikey=c5
hivel=127
lokey=b4
lovel=1
lpc=T0Y5QUZkysFrnrFBIDVhweXyTUFF5S7BVUrmQFdpdsCWbok/rVfsv3WEi0Cg8BTADu5GwCFhsEBBkEPAtL6/P1cYRsCLvmRAEyfxvtrglL77FhjAOLxSQBfOBcDJKJU/
lpc_rms=-37.05
offset=2107
pitch_keycenter=c5
sample=Solocello_tenuto_half_MF_C5.opus
</region>

<region>
hikey=d2
hivel=127
lokey=c#2
lovel=1
lpc=lWtPQpXG1MLVejVCY68sQTd4pUH3T7LBdsKDwGI9L0Ds8Na/7XPRP0YPHcAaFdZAF8gVwH/XiUBst5w/6UMswauuPEB/eo0/lHrnPypuP8AsRwhBj5SiwD+U+8COk9FA
lpc_rms=-37.51
offset=3491
pitch_keycenter=d2
sample=Solocello_tenuto_half_MF_D2.opus
</region>

<region>
hikey=d3
hivel=127
lokey=c#3
lovel=1
lpc=RYISQlSksMI7DIpCMvKkwYsoa0HJ5HbBtSeIQKEOHsBGbilADeCAwNrw+kCUxoXAuKq1wFp/aEGAPSTBvGrUvo2OEr+Qt5xAJbDIv6ocSD8LWS/AARfxP8tpO8A+iQ5A
lpc_rms=-39.77
offset=2822
pitch_keycenter=d3
sample=Solocello_tenuto_half_MF_D3.opus
</region>

<region>
hikey=d4
hivel=127
lokey=c#4
lovel=1
lpc=S2h1QZTdG8I3JyFC5T7Xwbf/pkEJg5DBKx9JQb8DCcGhTqhAMhw2wESGhEC5dnHA8MYNwDZk1UDS/NLAvPGgQC3PZMB6ZwxAbfDFvqhhdr2R8Om+suluP9Gfgb9+xvE+
lpc_rms=-40.03
offset=2805
pitch_keycenter=d4
sample=Solocello_tenuto_half_MF_D4.opus
</region>

<region>
hikey=d5
hivel=127
lokey=c#5
lovel=1
lpc=OjToQMY0ScHcxCVBPmfJwBFNk0CnKS/AfkQhQAFz7L+xSDc/+fhKv1KhzT9ztgbAZ/wZPy2uMz9QYM2+1GnBPvXPvT39ZaA8OvlFvmTuNT85ow+/RnqbP63owb7RQQM/
lpc_rms=-42.48
offset=7387
pitch_keycenter=d5
sample=Solocello_tenuto_half_MF_D5.opus
</region>

<region>
hikey=e2
hivel=127
lokey=d#2
lovel=1
lpc=kRyuQpL0NMNrUbZC/YpowCEuEkLiswPCWLXCQOcUEMF4TXpAVUvUwFKMH0D/YFFBzcjjwMNAxkCkLnhA1t6OwW5ChkAtZstAVZ2RvlKWscBZ/wVBmOjpv7zoWcF7CSZB
lpc_rms=-33.53
offset=1259
pitch_keycenter=e2
sample=Solocello_tenuto_half_MF_E2.opus
</region>

<region>
hikey=e3
hivel=127
lokey=d#3
lovel=1
lpc=Ez6IQsihJsP+wwJDUREIwq9nfUFi2cXBlEx8QeiVJMEAIRlBQgouwVvlL0Gt8YvAzVYBwYSKmkHL1c/AkamDwZ8hIEH7gjRB8o9KwaferEBzzLrAEsErQS9jecFu8QdB
lpc_rms=-32.73
offset=7986
pitch_keycenter=e3
sample=Solocello_tenuto_half_MF_E3.opus
</region>

<region>
hikey=e4
hivel=127
lokey=d#4
lovel=1
lpc=i6SNQcmgLcLF8iVCevnLwSE3nkGb9HTBDyTtQFBLH8DssuC+5cKjP6U/Gb/rBVBAembJwAV/4EA9tADBh13iQO4QcMAgO2ZA0NOswGUwm0Aezy/Acgg6QOLYQsBJm4w/
lpc_rms=-38.14
offset=5794
pitch_keycenter=e4
sample=Solocello_tenuto_half_MF_E4.opus
</region>

<region>
hikey=e5
hivel=127
lokey=d#5
lovel=1
lpc=tiBWQS9j5cG+WdJBRoWOwcRKbUF80w/BOnd6QAKYbsDOtDdAQyEfP5r4qb420q2/cc58P1b3gj9bHh3ATe9OQB5tHsCa0RBAcEmpv09xBEB0PVTA/6guQPYF37+lD9I/
lpc_rms=-34.40
offset=9404
pitch_keycenter=e5
sample=Solocello_tenuto_half_MF_E5.opus
</region>

<region>
hikey=f#2
hivel=127
lokey=f2
lovel=1
lpc=r4L4QkfmkMO9uT5DNvauwSXjHkI/hHXCTkpmQdxGO0GSV6/Bkm8TQXCQhkBh2hVBNw6BwUO6nkHivTjAr8Giwd6lJEGo/QhB7YNtwVSYKECPbjBBXJBJQHo7wMGHjmZB
lpc_rms=-31.28
offset=1092
pitch_keycenter=f#2
sample=Solocello_tenuto_half_MF_F#2.opus
</region>

<region>
hikey=f#3
hivel=127
lokey=f3
lovel=1
lpc=VX0iQrGNuMJOMIxC2/PMwWjzgkFuRGXB5hQWQbh0ucBeqmBAV6GpwEQ/mkAyEGi/RbwKwQCGgkETfN/Amn9pwMfi674XqgpBxffawBG0fD/D2iHAC+2dQGa6gsADYAFA
lpc_rms=-34.97
offset=4760
pitch_keycenter=f#3
sample=Solocello_tenuto_half_MF_F#3.opus
</region>

<region>
hikey=f#4
hivel=127
lokey=f4
lovel=1
lpc=vAsUQfldp8GEyZNBtUYrwYfLGEERhRHB6XO1QPIaFcBTuQU/kgyIPiNUer40zas+yHjyvwcfGUD+3hC/xN0evxZgU7+q5w5Avq24v5gSfD/2XC+/lR9LPmxOUr//Q2M/
lpc_rms=-43.60
offset=1619
pitch_keycenter=f#4
sample=Solocello_tenuto_half_MF_F#4.opus
</region>

<region>
hikey=B6
hivel=127
lokey=f5
lovel=1
lpc=paAFQfFhWcH6jhtBL3bTwEVm1kBFamvApkIrQF045L/8Jpe+/KLOPyA4BL8cy1u+Z9mMPy8U0D1YezS+XtXXPQEQHb9w9ds/LVSYvrvOQz8Uija/rbAnvwpjEj9iBZY/
lpc_rms=-40.80
offset=5385
pitch_keycenter=F#5
sample=Solocello_tenuto_half_MF_F#5.opus
</region>

<region>
hikey=g#2
hivel=127
lokey=g2
lovel=1
lpc=6//RQn+ZfMMqJjhD/b9IwmN0aUJdGnDCtKl3QVJGfsAuS7dAUPKKwUR+mkFIaQe/2PuCwEBsTEHvBE3BMaYcwGrjGcARo4tB7/a0wWJRcEEU3z/AncKlQF/LX8ErOPlA
lpc_rms=-31.73
offset=2304
pitch_keycenter=g#2
sample=Solocello_tenuto_half_MF_G#2.opus
</region>

<region>
hikey=g#3
hivel=127
lokey=g3
lovel=1
lpc=Du8KQl3Fo8ISgoBCRM+3wUF/gEEdtIPB4zIZQVhcxMC/XG1AO2nbv5CBuz+rMCQ/KttZwDac8kDS0m3Ago4NwYlpEkHis6I+wJzLv+kPDsAGMuk/44cMQBo7ncCBvipA
lpc_rms=-34.58
offset=3446
pitch_keycenter=g#3
sample=Solocello_tenuto_half_MF_G#3.opus
</region>

<region>
hikey=g#4
hivel=127
lokey=g4
lovel=1
lpc=IJ1GQUMl1cHPdrdBSmiCwQ7ueEGPA2bBcF9aQaKsPMF54ANB7KXSwE9loUCZYwfApmqCv32VVECcbC/AcxnaPzXyxL+qawNA+VAUwEkuD0AUNuy/vg1jPye/k7+IHYw/
lpc_rms=-35.71
offset=7106
pitch_keycenter=g#4
sample=Solocello_tenuto_half_MF_G#4.opus
</region>
</group>

<group>
group_label=Group_85-127
lpc_hicc1=127
lpc_locc1=85

<region>
hikey=a#2
hivel=127
lokey=a2
lovel=1
lpc=RKQuQpfX1sKj97pCrEodwltnzkHS5AnCt4/4QaP7xcEHuL9B9EqkwbuFT0HdErjAHlBBwD1r3UA0N2FAdaswwbLiOD8fYFlBP4lFwZt3L0BNcGG+75xBQJ8CVsD40Yk/
lpc_rms=-23.68
offset=1855
pitch_keycenter=a#2
sample=Solocello_tenuto_half_FF_A#2.opus
</region>

<region>
hikey=a#3
hivel=127
lokey=a3
lovel=1
lpc=B9CWQY/dJcKSnQhCsbOXweoahEHFoXvBbKZNQWBXPME16yRB7YTxwFZwkUB2GQbAezZPwD9x50A6SZ3AaT0jQDxWSsDjVr4/mEsRQF6XMcD6eBhAO40cwAMy0D9xuL6+
lpc_rms=-24.32
offset=1630
pitch_keycenter=a#3
sample=Solocello_tenuto_half_FF_A#3.opus
</region>

<region>
hikey=a#4
hivel=127
lokey=a4
lovel=1
lpc=AnZPQPFAs8CJq5BAC8dJwG1eVkAr8T7AFRzFP5bD1b7Hxig/RX4jv3mHAb20vEw+mHWuvT8avj4Gaca+m6vMPVkFKj6MpL89GPWOveFtvr70JBw+rEPhPlH+xb7atHg+
lpc_rms=-34.95
pitch_keycenter=a#4
sample=Solocello_tenuto_half_FF_A#4.opus
</region>

<region>
hivel=127
key=c2
lovel=1
lpc=9MRLQt/iA8Mizv9C6LiRwhD+U0JzwzTChUXsQUvRpcHFaDxBqkUsv3M6vMAq0ixBQdCpweFI9kHEzcPBJ1hjQdBhZsFun3RBMXSNwCxSxMAKaaJAy1VLP3Mvi8A0OhtA
lpc_rms=-23.08
offset=410
sample=Solocello_tenuto_half_FF_C2.opus
</region>

<region>
hikey=c3
hivel=127
lokey=b2
lovel=1
lpc=rFCDQUs3HcI8GgxCTR+NwbW4UEH4fWbBb7JNQd8/PcE8OERBYKY3wce9D0HsXLTAFSG2P9qWkD8SH8c+Ujeuv1OcA8CdIY9Abdvbv+CAxz5aPyjAwnJpQIvP+b/D2zU+
lpc_rms=-30.94
pitch_keycenter=c3
sample=Solocello_tenuto_half_FF_C3.opus
</region>

<region>
hikey=c4
hivel=127
lokey=b3
lovel=1
lpc=6nAHQS5Nj8HYZHVBlFghwbcxEEH8IwDBMITLQDEjw8DNX5ZA+D8LwABjCkD0PTfAgVDHP2wLjT2XfNm+eXVmvXYLKj0ct8K9V+LxP9M2JcCFiM0/TzT0vxeTFkAidYO/
lpc_rms=-27.25
pitch_keycenter=c4
sample=Solocello_tenuto_half_FF_C4.opus
</region>

<region>
hikey=c5
hivel=127
lokey=b4
lovel=1
lpc=L56TQAVJ8MCSVapAwHRXwH0tekD8cYzAFDQtQKFLiL8cN/A/ZskYwNkDsj9EBQC/oc7YPRA5Xb5u/o8+xi0YvhN2Cj5PL4Y+hwyfPNdCAb8ruhQ/f+FuvppOCj8Pzr29
lpc_rms=-30.59
pitch_keycenter=c5
sample=Solocello_tenuto_half_FF_C5.opus
</region>

<region>
hikey=d2
hivel=127
lokey=c#2
lovel=1
lpc=C5sUQgecusJECKlCf9w1wmGcIEI0tRLCb0qpQV94X8GY3MhAUpnrP56u4r9h+yRAUGktwW0AlUHum2zBnnPmQE5z7MAjZgJBIbPMPr3R1MCvX6FAeMaawPtdZ0ATQUq/
lpc_rms=-27.68
pitch_keycenter=d2
sample=Solocello_tenuto_half_FF_D2.opus
</region>

<region>
hikey=d3
hivel=127
lokey=c#3
lovel=1
lpc=0aqfQcbeRcKqbkFCJoH6wVzt1EG87tDBTfqtQQHRl8HkQpdBxQ6LwSScTUEldNDAVCWKvy/1n0ARWUTAZ91BvAlqfD6ty+8/iUWuvymK1D55gwnAeEnKP8tXuz/j0LK/
lpc_rms=-28.23
pitch_keycenter=d3
sample=Solocello_tenuto_half_FF_D3.opus
</region>

<region>
hikey=d4
hivel=127
lokey=c#4
lovel=1
lpc=MlsTQaFuksGWaGxB3UcbwZqUHEEAS/zAHPKQQJFUiMCLkVlAf/fkv6pp9D+N5lrAV84mQJAdjb+mRaA/x+y2v2eYej0P9Ji+XfUDQMnKAsDfRNY/7VHUv8yjpz8iu9+9
lpc_rms=-26.67
pitch_keycenter=d4
sample=Solocello_tenuto_half_FF_D4.opus
</region>

<region>
hikey=d5
hivel=127
lokey=c#5
lovel=1
lpc=2JaJQEGS1cB7g4dALRwcwPBbakDRHkPAh8qbP+1bsb56JO0+yp6uvxiT1z/xeX6/F7EwPyleFb+gAwI/QrxPv56vNT+uj+O9FiKKP0DRm79HJhs/AgI8vcGVqT7ryZg9
lpc_rms=-32.05
pitch_keycenter=d5
sample=Solocello_tenuto_half_FF_D5.opus
</region>

<region>
hikey=e2
hivel=127
lokey=d#2
lovel=1
lpc=OLyMQgMtOsPHNDhDSTXWwqx3okJU+5PC82ZLQiY+D8Jiy+JBzRKTwZMU5UC51OC/MscEwBu5bEFYdrTBN+5wQVaJKsEX3WdBVPwMwH6YR8HbOO1AAQQXv/VJuby6paw9
lpc_rms=-21.52
offset=1789
pitch_keycenter=e2
sample=Solocello_tenuto_half_FF_E2.opus
</region>

<region>
hikey=e3
hivel=127
lokey=d#3
lovel=1
lpc=0RoWQjc5t8IQ/alC3rJRwnCeNUIUHyjCNBjnQeA/mcFVoJpBfCqowYuekkEUkynBQOexwJODikGGMIPBQp8bQQyCzMBimj5B4Hs0wUM4YEDEYSvA0EmVQJZzOMDBuCA/
lpc_rms=-21.89
offset=1378
pitch_keycenter=e3
sample=Solocello_tenuto_half_FF_E3.opus
</region>

<region>
hikey=e4
hivel=127
lokey=d#4
lovel=1
lpc=40lsQU2V+8EYAstB1FN2wWd/gUEoOWzBBZ0BQaKdxMDCmOpAZlewwNv8JEB3FhjAoK8qP1QMakACL5fA3q0IQC8mAcAW+W9A+eiUvwsxBMBXBbY/QlTGvjdT9D9foq+/
lpc_rms=-21.86
offset=1161
pitch_keycenter=e4
sample=Solocello_tenuto_half_FF_E4.opus
</region>

<region>
hikey=e5
hivel=127
lokey=d#5
lovel=1
lpc=qp61QG8kFcFUv+BAwGeswMjdy0BTAL3AIydjQKdVtr/N/Zg/XRl9vz1HTD+KfTe/SQ8XP5dBLj/mOBK/cSrBvotxtj7dKgE/qJ8yPjjSeb99EoE/WBohv0DiXD9E9j69
lpc_rms=-31.02
pitch_keycenter=e5
sample=Solocello_tenuto_half_FF_E5.opus
</region>

<region>
hikey=f#2
hivel=127
lokey=f2
lovel=1
lpc=DjuaQjG1TMPGckdD9DXawizIo0KqpZbCM6ZFQha5FcIyO9xBOr8UwTb2tb0V9pJAbSutwWRWI0K8TxPCAdq8QRuUtMHP95ZBPbxBvoPuOsFME/hAVBUKwLV5AcAoHBBA
lpc_rms=-22.28
offset=141
pitch_keycenter=f#2
sample=Solocello_tenuto_half_FF_F#2.opus
</region>

<region>
hikey=f#3
hivel=127
lokey=f3
lovel=1
lpc=DqvWQTQDgMJQamhC8FYJwuXc5UF+ptTBKTqPQdlrS8GXVFlBvQx5wftpWUF1CZLAhg/WwD+jEkFVG9DAn4B6QC1sWL7jT8Y/fhXrvxjPEsBtJWdA3/Czv9Ain7xt48W9
lpc_rms=-24.04
offset=147
pitch_keycenter=f#3
sample=Solocello_tenuto_half_FF_F#3.opus
</region>

<region>
hikey=f#4
hivel=127
lokey=f4
lovel=1
lpc=SpnXQCeYXsFUiUBBvLYBwdFf8UAUydHA9qplQIDwHcAA+ThAWCiov6bROr9rsXU/kTaZvxGy8j89Odq/tzM2P2zgBr8Ec64/4UCBv0tzRL4J6uI+dYuCvgGJUj9A7AW/
lpc_rms=-28.58
pitch_keycenter=f#4
sample=Solocello_tenuto_half_FF_F#4.opus
</region>

<region>
hikey=B6
hivel=127
lokey=f5
lovel=1
lpc=72vXQI3kJ8GMG+lAIuWBwFSybUD3Ysm/m8KzP+TBA8AOsts/FLM5v7QPoT+FbJ++34eZvlJ90T/rKkW/yNf5vp0GHz9YkvK+p7HUP+kqqT41V6K/ZxBPPzzeRr8U1MI/
lpc_rms=-28.85
offset=3550
pitch_keycenter=F#5
sample=Solocello_tenuto_half_FF_F#5.opus
</region>

<region>
hikey=g#2
hivel=127
lokey=g2
lovel=1
lpc=Hq6eQr9mU8OPflND143/wg9OzkJdfrXCA0leQrS5JMJY3wRCuCt7wX6evEBBUe8/ihKiwVLnIUJ0hijCNlfoQdjYzsFNx85BAviPwH2yGMFSjGlAFpZ0wDT6wEBS7yHA
lpc_rms=-20.12
offset=548
pitch_keycenter=g#2
sample=Solocello_tenuto_half_FF_G#2.opus
</region>

<region>
hikey=g#3
hivel=127
lokey=g3
lovel=1
lpc=EumbQeWTMsKj0xVCNtSkwZhglkEmx4zBuIVRQXF4P8EymVFBq51ewebKM0HcGpjAcHp0wE0uAEHJK8DA+ySNQIVwiMC0gIZAjUM3wG+GtT8HNaq/S5QLQCbW9788lw8/
lpc_rms=-25.03
offset=857
pitch_keycenter=g#3
sample=Solocello_tenuto_half_FF_G#3.opus
</region>

<region>
hikey=g#4
hivel=127
lokey=g4
lovel=1
lpc=n9q1QHe1L8EHrRJBwYbowDa5BkHer/PAfnSYQG7jbcAaWHtAstYpwBDTyD+G+Me/OUkCP++qIj/wmh+/aGPVPW0HM74W9AQ/MAeqPgYuML8sRpE+F1HOvZ9IIT+Jif2+
lpc_rms=-30.27
offset=727
pitch_keycenter=g#4
sample=Solocello_tenuto_half_FF_G#4.opus
</region>
</group>